<svg width="26" height="30" viewBox="0 0 26 30" fill="none" xmlns="http://www.w3.org/2000/svg">
<path d="M12.5 30L2 23L23 23L12.5 30Z" fill="url(#paint0_linear_5238_583)"/>
<path d="M25.5664 14.8658C24.5264 22.69 16.4664 27.6527 12.5664 30C4.93977 25.3055 1.29977 18.5171 0.433105 14.8658H25.5664Z" fill="#DB0008"/>
<ellipse cx="13" cy="12.5" rx="13" ry="12.5" fill="#DB0008"/>
<path d="M18 16H16.8356C16.3938 9.71101 16.1729 8.81257 15.7311 7.91414C15.3777 7.1954 14.9948 7.61466 14.8476 7.91414C13.7873 9.89068 13.5222 13.6791 13.5222 15.3262H12.4178C12.4178 12.8555 11.976 9.03717 11.3133 7.91414C10.7832 7.01571 10.3562 7.53979 10.2089 7.91414C9.32534 9.89068 9.25171 14.1283 9.32534 16H8C8.44178 8.58798 9.54623 7.24034 10.6507 7.01572C11.7551 6.7911 12.6387 9.03719 12.8596 9.711C13.0363 10.25 13.2277 9.93561 13.3014 9.711C13.6548 7.37509 14.7739 6.94085 15.2894 7.01572C17.4099 7.1954 17.98 13.0801 18 16Z" fill="#FFBC0D"/>
<defs>
<linearGradient id="paint0_linear_5238_583" x1="-4.7849" y1="20.6667" x2="-4.7849" y2="30" gradientUnits="userSpaceOnUse">
<stop stop-color="#D9D9D9" stop-opacity="0"/>
<stop offset="0.735577" stop-color="#BFBFBF"/>
</linearGradient>
</defs>
</svg>
