<svg width="93" height="93" viewBox="0 0 93 93" fill="none" xmlns="http://www.w3.org/2000/svg">
<path d="M88.0765 72.2407C88.0765 75.86 86.0092 79.1697 82.7415 80.7262C76.5723 83.665 64.817 87.6253 46.2663 87.6253C27.7155 87.6253 15.9603 83.665 9.79102 80.7262C6.52331 79.1697 4.45605 75.86 4.45605 72.2407C4.45605 67.041 8.67121 62.8259 13.8709 62.8259H78.6617C83.8613 62.8259 88.0765 67.041 88.0765 72.2407Z" fill="#E59328"/>
<path d="M87.7132 57.8983C87.7132 54.279 85.646 50.9693 82.3782 49.4128C76.209 46.474 64.4538 42.5137 45.903 42.5137C27.3522 42.5137 15.597 46.474 9.42774 49.4128C6.16003 50.9693 4.09277 54.279 4.09277 57.8983C4.09277 57.9506 4.09586 58.0022 4.09677 58.0542C4.09586 58.1063 4.09277 58.1579 4.09277 58.21C4.09277 61.8294 6.16003 65.1391 9.42774 66.6955C15.597 69.6343 27.3522 73.5946 45.903 73.5946C64.4538 73.5946 76.209 69.6343 82.3782 66.6955C85.646 65.1391 87.7132 61.8294 87.7132 58.21C87.7132 58.1577 87.7101 58.1061 87.7092 58.0542C87.7101 58.002 87.7132 57.9505 87.7132 57.8983Z" fill="#7A2F18"/>
<path d="M46.8339 67.1509C68.0426 67.1509 85.2356 61.2944 85.2356 54.07C85.2356 46.8457 68.0426 40.9892 46.8339 40.9892C25.6252 40.9892 8.43213 46.8457 8.43213 54.07C8.43213 61.2944 25.6252 67.1509 46.8339 67.1509Z" fill="#DB1D1D"/>
<path d="M46.8339 62.1712C68.0426 62.1712 85.2356 56.3147 85.2356 49.0904C85.2356 41.866 68.0426 36.0095 46.8339 36.0095C25.6252 36.0095 8.43213 41.866 8.43213 49.0904C8.43213 56.3147 25.6252 62.1712 46.8339 62.1712Z" fill="#FF473E"/>
<path d="M88.4589 40.8502C84.0696 38.4137 77.6544 37.455 72.0148 37.4575C68.9386 37.459 65.8067 37.78 62.8707 38.3803C60.5836 38.8478 58.3484 39.4394 55.9963 39.7439C55.6021 39.7601 55.2074 39.7638 54.8129 39.7549C54.5424 39.7131 54.2732 39.6634 54.0055 39.6062C53.0305 39.2787 52.1045 38.8952 51.1594 38.5289C49.6449 37.942 48.059 37.4832 46.4277 37.0503C43.5579 36.289 40.5354 35.9261 37.4595 35.7447C31.651 35.4019 25.6629 36.2774 20.4985 38.0364C19.6715 38.1047 18.8556 38.2716 18.0683 38.5336C12.7965 40.2917 8.33181 43.0978 5.19615 46.3752C4.53025 47.0712 3.94065 47.7991 3.4346 48.5509C2.33149 50.1898 1.34192 51.8756 2.32041 53.688C4.15244 57.0816 9.62763 58.3197 14.6643 57.5234C18.1384 56.9741 20.8474 55.4692 23.5718 54.0455C24.2548 53.7218 24.9617 53.4265 25.7074 53.1733C25.7902 53.1557 25.8728 56.2277 25.9562 56.2118C26.6548 56.631 27.3127 57.0789 28.0267 57.488C29.243 58.1849 30.5443 58.8564 31.928 59.4068C34.7618 60.5343 38.151 61.2563 41.4854 61.2359C44.8921 61.2152 48.1456 60.501 50.8337 59.1378C52.2658 58.4114 53.4404 57.5546 54.3481 56.5113C54.6803 56.1295 54.9673 55.734 55.2816 55.3488C55.5386 55.3931 57.4832 52.9471 58.1615 53.2695C59.8593 54.163 61.5169 55.1021 63.3569 55.8641C65.9014 56.9178 68.8957 57.5504 71.9157 57.5557C77.7305 57.5663 83.2162 55.3631 87.2534 52.7671C89.3366 51.4275 91.2849 49.6494 91.8578 47.7353C92.6167 45.1994 91.5347 42.5576 88.4589 40.8502ZM28.9144 44.8207C30.129 44.5601 31.3557 44.3598 32.5901 44.2206C34.293 44.1138 36.0009 44.1138 37.7038 44.2206C39.3026 44.4013 40.8655 44.6769 42.3847 45.0503C43.5897 45.431 44.7219 48.9781 45.8751 49.4168C44.7068 50.3217 44.0484 51.4014 43.0862 52.3993C43.0373 52.4324 42.9868 52.4645 42.9365 52.4967C42.8116 52.5465 42.6859 52.5941 42.5593 52.6394C42.3227 52.6874 42.085 52.7296 41.8463 52.7659C41.5406 52.7741 41.2346 52.7737 40.9289 52.7648C40.4728 52.697 40.0194 52.6122 39.5696 52.5106C38.8469 52.2719 38.138 51.9931 37.4463 51.6756C36.1782 50.9649 35.0312 50.17 33.7072 49.4985C32.2773 48.7736 30.654 45.1121 28.9144 44.8207ZM76.6191 47.6714C75.6945 48.107 74.7311 48.4989 73.7117 48.8295C73.2591 48.9322 72.8028 49.0176 72.3438 49.0856C72.1071 49.0914 71.8704 49.0919 71.6338 49.0869C71.3989 49.0498 71.165 49.0069 70.9323 48.9583C70.1221 48.6822 69.3602 48.3543 68.6216 48C67.7503 47.5384 66.8891 47.0614 66.006 46.6059C67.2128 46.3596 68.4291 46.1434 69.6786 45.9947C71.2685 45.8973 72.8629 45.8983 74.4526 45.9976C75.7551 46.147 77.0485 46.3673 78.327 46.6573C77.7877 47.0157 77.2136 47.3508 76.6191 47.6714Z" fill="#00B89C"/>
<path d="M20.897 60.3105C18.4592 56.3671 13.7731 49.098 7.91826 41.5307C-0.494245 42.9584 66.5515 31.6574 66.5515 31.6574C85.2743 33.6295 87.7473 42.8924 87.7568 47.6151C87.7598 49.1267 86.4633 50.3159 84.9555 50.2093C44.8456 47.3693 29.8279 56.3228 24.8815 60.8719C23.6763 61.9799 21.758 61.7031 20.897 60.3105Z" fill="#FECB21"/>
<path d="M45.903 4.64764C23.5258 4.64764 4.09277 18.7807 4.09277 35.8045C4.09277 44.8812 22.8117 52.2393 45.903 52.2393C68.9942 52.2393 87.7132 44.8812 87.7132 35.8045C87.7132 19.2623 68.2802 4.64764 45.903 4.64764Z" fill="#E59328"/>
<path d="M19.6826 24.2141L21.4374 28.0164C21.5369 28.2319 21.5466 28.4781 21.4646 28.7008C21.3825 28.9235 21.2153 29.1045 20.9998 29.204C20.8745 29.2612 20.7377 29.289 20.6 29.2851C20.4623 29.2813 20.3273 29.2461 20.2053 29.182L16.506 27.2198C15.3802 26.6225 14.9516 25.2257 15.5488 24.0999C16.146 22.9741 17.5428 22.5454 18.6687 23.1426C19.1151 23.3788 19.4714 23.7553 19.6826 24.2141ZM56.6739 10.7586C55.5481 10.1613 54.1512 10.59 53.554 11.7158C52.9568 12.8416 53.3854 14.2384 54.5112 14.8357L58.2105 16.7979C58.3325 16.862 58.4675 16.8973 58.6052 16.9011C58.743 16.9049 58.8797 16.8771 59.005 16.8199C59.2205 16.7205 59.3877 16.5395 59.4698 16.3168C59.5518 16.094 59.5421 15.8479 59.4426 15.6324L57.6878 11.8301C57.4765 11.3713 57.1203 10.9948 56.6739 10.7586ZM35.8578 15.4345C35.1269 14.3905 33.688 14.1367 32.6439 14.8678C31.5998 15.5989 31.3461 17.0377 32.0772 18.0818L34.479 21.5121C34.5585 21.6246 34.6627 21.7174 34.7836 21.7834C34.9045 21.8494 35.0389 21.8869 35.1765 21.893C35.4137 21.9023 35.6448 21.8171 35.8192 21.6561C35.9936 21.4951 36.0969 21.2715 36.1065 21.0343L36.2734 16.8501C36.294 16.3454 36.148 15.848 35.8578 15.4345ZM78.2731 25.636C78.8253 24.4312 78.2962 23.007 77.0915 22.455C75.8867 21.9028 74.4625 22.4319 73.9105 23.6365L72.5565 26.5907C72.482 26.7535 72.456 26.9342 72.4816 27.1114C72.5072 27.2885 72.5833 27.4545 72.7009 27.5895C72.8184 27.7245 72.9724 27.8227 73.1443 27.8724C73.3163 27.9221 73.4989 27.9211 73.6703 27.8697L76.7826 26.9342C77.4156 26.7408 77.9756 26.285 78.2731 25.636ZM44.0417 35.3816C42.7889 35.1478 41.5837 35.9737 41.3498 37.2265C41.116 38.4793 41.9419 39.6845 43.1947 39.9184L47.3112 40.6868C47.4467 40.7115 47.5861 40.7048 47.7186 40.6674C47.8512 40.6299 47.9734 40.5626 48.0759 40.4706C48.1631 40.3918 48.2338 40.2965 48.2842 40.1903C48.3345 40.0841 48.3634 39.969 48.3693 39.8517C48.3751 39.7343 48.3578 39.6169 48.3183 39.5062C48.2788 39.3955 48.2178 39.2937 48.1389 39.2066L45.3291 36.1016C44.9907 35.7267 44.5382 35.4737 44.0417 35.3816ZM66.2291 38.8789C66.7393 40.0469 68.0996 40.58 69.2676 40.0697C70.4355 39.5595 70.9686 38.1992 70.4584 37.0313L68.7818 33.1939C68.7262 33.0679 68.6424 32.9563 68.5369 32.8677C68.4314 32.7791 68.3071 32.7157 68.1734 32.6826C68.0592 32.6548 67.9406 32.6497 67.8244 32.6678C67.7083 32.6858 67.5968 32.7265 67.4964 32.7876C67.396 32.8487 67.3086 32.9289 67.2392 33.0238C67.1699 33.1187 67.1198 33.2263 67.092 33.3405L66.1014 37.4092C65.9817 37.8999 66.0265 38.4163 66.2291 38.8789ZM31.5668 37.7322C31.7132 36.4516 30.7937 35.2949 29.5131 35.1485C28.2326 35.0021 27.0759 35.9216 26.9295 37.2022L26.4487 41.4097C26.4367 41.5171 26.4479 41.6259 26.4813 41.7286C26.5148 41.8314 26.5698 41.9259 26.6427 42.0057C26.778 42.153 26.9663 42.2405 27.1662 42.2489C27.366 42.2574 27.561 42.1862 27.7084 42.0509L30.8269 39.1859C31.2405 38.8062 31.5032 38.29 31.5668 37.7322ZM52.7166 30.1295C53.9129 30.5688 55.2389 29.9553 55.6783 28.759C56.1177 27.5627 55.5041 26.2367 54.3078 25.7973L50.3769 24.3536C50.2474 24.3067 50.1089 24.29 49.9719 24.3049C49.835 24.3197 49.7032 24.3657 49.5868 24.4394C49.3867 24.5671 49.2456 24.769 49.1944 25.0008C49.1433 25.2326 49.1863 25.4752 49.314 25.6753L51.567 29.2051C51.8383 29.6311 52.2423 29.9559 52.7166 30.1295Z" fill="#FFCD7D"/>
</svg>
