<svg width="24" height="24" viewBox="0 0 24 24" fill="none" xmlns="http://www.w3.org/2000/svg">
<path d="M13.25 5C17.116 5 20.25 8.13401 20.25 12C20.25 13.1148 19.988 14.168 19.5244 15.1035L23.8457 18.6348L22.8965 19.7959L18.7109 16.376C17.428 17.9749 15.4595 19 13.25 19C9.38401 19 6.25 15.866 6.25 12C6.25 8.13401 9.38401 5 13.25 5ZM4.38965 16.5C4.88652 17.0913 5.47868 17.5995 6.14355 18H0.25V16.5H4.38965ZM13.25 6.5C10.2124 6.5 7.75 8.96243 7.75 12C7.75 15.0376 10.2124 17.5 13.25 17.5C16.2876 17.5 18.75 15.0376 18.75 12C18.75 8.96243 16.2876 6.5 13.25 6.5ZM2.82227 11C2.77553 11.3267 2.75 11.6604 2.75 12C2.75 12.1682 2.75787 12.3348 2.76953 12.5H0.25V11H2.82227ZM6.25 5.93848C5.74005 6.23356 5.27066 6.5904 4.85254 7H0.25V5.5H6.25V5.93848Z" fill="black"/>
<path d="M13.25 5C17.116 5 20.25 8.13401 20.25 12C20.25 13.1148 19.988 14.168 19.5244 15.1035L23.8457 18.6348L22.8965 19.7959L18.7109 16.376C17.428 17.9749 15.4595 19 13.25 19C9.38401 19 6.25 15.866 6.25 12C6.25 8.13401 9.38401 5 13.25 5ZM4.38965 16.5C4.88652 17.0913 5.47868 17.5995 6.14355 18H0.25V16.5H4.38965ZM13.25 6.5C10.2124 6.5 7.75 8.96243 7.75 12C7.75 15.0376 10.2124 17.5 13.25 17.5C16.2876 17.5 18.75 15.0376 18.75 12C18.75 8.96243 16.2876 6.5 13.25 6.5ZM2.82227 11C2.77553 11.3267 2.75 11.6604 2.75 12C2.75 12.1682 2.75787 12.3348 2.76953 12.5H0.25V11H2.82227ZM6.25 5.93848C5.74005 6.23356 5.27066 6.5904 4.85254 7H0.25V5.5H6.25V5.93848Z" fill="black" fill-opacity="0.2"/>
</svg>
