<svg width="20" height="20" viewBox="0 0 20 20" fill="none" xmlns="http://www.w3.org/2000/svg">
<g clip-path="url(#clip0_5284_1282)">
<path d="M10 0C10.14 0 10.2794 0.00336271 10.418 0.00976562C15.6171 0.223553 19.7899 4.40582 19.9902 9.6084C19.9962 9.7383 20 9.86881 20 10C20 10.1309 19.9961 10.261 19.9902 10.3906C19.79 15.6028 15.6028 19.79 10.3906 19.9902C10.261 19.9961 10.1309 20 10 20C9.86881 20 9.7383 19.9962 9.6084 19.9902C4.3967 19.7895 0.209005 15.6025 0.00878906 10.3906C0.0028949 10.2611 0 10.1308 0 10C0 9.86882 0.0028679 9.73828 0.00878906 9.6084C0.204866 4.51708 4.20626 0.404344 9.25 0.0302734C9.2604 0.0295018 9.27084 0.0290688 9.28125 0.0283203C9.38084 0.0212452 9.48068 0.0139028 9.58105 0.00976562C9.71997 0.00333485 9.85963 0 10 0ZM10.75 4.25H9.25V1.53418C5.15411 1.89232 1.89334 5.15412 1.53516 9.25H4.25V10.75H1.53516C1.89334 14.8458 5.15415 18.1067 9.25 18.4648V15.75H10.75V18.4648C14.8458 18.1067 18.1067 14.8458 18.4648 10.75H15.75V9.25H18.4648C18.1067 5.15412 14.8459 1.89232 10.75 1.53418V4.25ZM10 8.75C10.6904 8.75 11.25 9.30964 11.25 10C11.25 10.6904 10.6904 11.25 10 11.25C9.30964 11.25 8.75 10.6904 8.75 10C8.75 9.30964 9.30964 8.75 10 8.75Z" fill="#307AC4"/>
</g>
<defs>
<clipPath id="clip0_5284_1282">
<rect width="20" height="20" fill="white"/>
</clipPath>
</defs>
</svg>
