<svg width="20" height="20" viewBox="0 0 20 20" fill="none" xmlns="http://www.w3.org/2000/svg">
<line x1="3.5" y1="5.375" x2="6.5" y2="5.375" stroke="black" stroke-width="1.25"/>
<line x1="3.5" y1="5.375" x2="6.5" y2="5.375" stroke="black" stroke-opacity="0.2" stroke-width="1.25"/>
<line x1="13.5" y1="9.375" x2="16.5" y2="9.375" stroke="black" stroke-width="1.25"/>
<line x1="13.5" y1="9.375" x2="16.5" y2="9.375" stroke="black" stroke-opacity="0.2" stroke-width="1.25"/>
<line x1="6.125" y1="4" x2="6.125" y2="7" stroke="black" stroke-width="1.25"/>
<line x1="6.125" y1="4" x2="6.125" y2="7" stroke="black" stroke-opacity="0.2" stroke-width="1.25"/>
<line x1="14.125" y1="8" x2="14.125" y2="11" stroke="black" stroke-width="1.25"/>
<line x1="14.125" y1="8" x2="14.125" y2="11" stroke="black" stroke-opacity="0.2" stroke-width="1.25"/>
<line x1="8.5" y1="5.375" x2="16.5" y2="5.375" stroke="black" stroke-width="1.25"/>
<line x1="8.5" y1="5.375" x2="16.5" y2="5.375" stroke="black" stroke-opacity="0.2" stroke-width="1.25"/>
<line x1="3.5" y1="13.875" x2="6.5" y2="13.875" stroke="black" stroke-width="1.25"/>
<line x1="3.5" y1="13.875" x2="6.5" y2="13.875" stroke="black" stroke-opacity="0.2" stroke-width="1.25"/>
<line x1="6.125" y1="12.5" x2="6.125" y2="15.5" stroke="black" stroke-width="1.25"/>
<line x1="6.125" y1="12.5" x2="6.125" y2="15.5" stroke="black" stroke-opacity="0.2" stroke-width="1.25"/>
<line x1="8.5" y1="13.875" x2="16.5" y2="13.875" stroke="black" stroke-width="1.25"/>
<line x1="8.5" y1="13.875" x2="16.5" y2="13.875" stroke="black" stroke-opacity="0.2" stroke-width="1.25"/>
<line x1="4.5" y1="9.375" x2="12.5" y2="9.375" stroke="black" stroke-width="1.25"/>
<line x1="4.5" y1="9.375" x2="12.5" y2="9.375" stroke="black" stroke-opacity="0.2" stroke-width="1.25"/>
</svg>
